<svg id="visual" viewBox="0 0 960 540" width="960" height="540" xmlns="http://www.w3.org/2000/svg" xmlns:xlink="http://www.w3.org/1999/xlink" version="1.1"><rect x="0" y="0" width="960" height="540" fill="#64748b"></rect><defs><linearGradient id="grad1_0" x1="43.8%" y1="0%" x2="100%" y2="100%"><stop offset="14.444444444444446%" stop-color="#000000" stop-opacity="1"></stop><stop offset="85.55555555555554%" stop-color="#000000" stop-opacity="1"></stop></linearGradient></defs><defs><linearGradient id="grad1_1" x1="43.8%" y1="0%" x2="100%" y2="100%"><stop offset="14.444444444444446%" stop-color="#000000" stop-opacity="1"></stop><stop offset="85.55555555555554%" stop-color="#0f2133" stop-opacity="1"></stop></linearGradient></defs><defs><linearGradient id="grad1_2" x1="43.8%" y1="0%" x2="100%" y2="100%"><stop offset="14.444444444444446%" stop-color="#2a3b4f" stop-opacity="1"></stop><stop offset="85.55555555555554%" stop-color="#0f2133" stop-opacity="1"></stop></linearGradient></defs><defs><linearGradient id="grad1_3" x1="43.8%" y1="0%" x2="100%" y2="100%"><stop offset="14.444444444444446%" stop-color="#2a3b4f" stop-opacity="1"></stop><stop offset="85.55555555555554%" stop-color="#46566c" stop-opacity="1"></stop></linearGradient></defs><defs><linearGradient id="grad1_4" x1="43.8%" y1="0%" x2="100%" y2="100%"><stop offset="14.444444444444446%" stop-color="#64748b" stop-opacity="1"></stop><stop offset="85.55555555555554%" stop-color="#46566c" stop-opacity="1"></stop></linearGradient></defs><defs><linearGradient id="grad2_0" x1="0%" y1="0%" x2="56.3%" y2="100%"><stop offset="14.444444444444446%" stop-color="#000000" stop-opacity="1"></stop><stop offset="85.55555555555554%" stop-color="#000000" stop-opacity="1"></stop></linearGradient></defs><defs><linearGradient id="grad2_1" x1="0%" y1="0%" x2="56.3%" y2="100%"><stop offset="14.444444444444446%" stop-color="#0f2133" stop-opacity="1"></stop><stop offset="85.55555555555554%" stop-color="#000000" stop-opacity="1"></stop></linearGradient></defs><defs><linearGradient id="grad2_2" x1="0%" y1="0%" x2="56.3%" y2="100%"><stop offset="14.444444444444446%" stop-color="#0f2133" stop-opacity="1"></stop><stop offset="85.55555555555554%" stop-color="#2a3b4f" stop-opacity="1"></stop></linearGradient></defs><defs><linearGradient id="grad2_3" x1="0%" y1="0%" x2="56.3%" y2="100%"><stop offset="14.444444444444446%" stop-color="#46566c" stop-opacity="1"></stop><stop offset="85.55555555555554%" stop-color="#2a3b4f" stop-opacity="1"></stop></linearGradient></defs><defs><linearGradient id="grad2_4" x1="0%" y1="0%" x2="56.3%" y2="100%"><stop offset="14.444444444444446%" stop-color="#46566c" stop-opacity="1"></stop><stop offset="85.55555555555554%" stop-color="#64748b" stop-opacity="1"></stop></linearGradient></defs><g transform="translate(960, 0)"><path d="M0 459C-49.2 426.6 -98.3 394.3 -156.1 376.9C-213.9 359.6 -280.4 357.3 -324.6 324.6C-368.7 291.8 -390.6 228.7 -409.3 169.5C-428 110.4 -443.5 55.2 -459 0L0 0Z" fill="#55657b"></path><path d="M0 367.2C-39.3 341.3 -78.7 315.4 -124.9 301.6C-171.2 287.7 -224.3 285.8 -259.6 259.6C-295 233.5 -312.5 183 -327.4 135.6C-342.4 88.3 -354.8 44.1 -367.2 0L0 0Z" fill="#38485d"></path><path d="M0 275.4C-29.5 256 -59 236.6 -93.7 226.2C-128.4 215.8 -168.2 214.4 -194.7 194.7C-221.2 175.1 -234.4 137.2 -245.6 101.7C-256.8 66.2 -266.1 33.1 -275.4 0L0 0Z" fill="#1d2d41"></path><path d="M0 183.6C-19.7 170.7 -39.3 157.7 -62.5 150.8C-85.6 143.8 -112.2 142.9 -129.8 129.8C-147.5 116.7 -156.2 91.5 -163.7 67.8C-171.2 44.1 -177.4 22.1 -183.6 0L0 0Z" fill="#011526"></path><path d="M0 91.8C-9.8 85.3 -19.7 78.9 -31.2 75.4C-42.8 71.9 -56.1 71.5 -64.9 64.9C-73.7 58.4 -78.1 45.7 -81.9 33.9C-85.6 22.1 -88.7 11 -91.8 0L0 0Z" fill="#000000"></path></g><g transform="translate(0, 540)"><path d="M0 -459C41.2 -406.9 82.4 -354.9 140.8 -340C199.3 -325.1 275 -347.4 324.6 -324.6C374.2 -301.7 397.7 -233.8 415.7 -172.2C433.8 -110.6 446.4 -55.3 459 0L0 0Z" fill="#55657b"></path><path d="M0 -367.2C33 -325.6 65.9 -283.9 112.7 -272C159.4 -260.1 220 -277.9 259.6 -259.6C299.3 -241.4 318.1 -187.1 332.6 -137.8C347 -88.5 357.1 -44.2 367.2 0L0 0Z" fill="#38485d"></path><path d="M0 -275.4C24.7 -244.2 49.4 -212.9 84.5 -204C119.6 -195.1 165 -208.4 194.7 -194.7C224.5 -181 238.6 -140.3 249.4 -103.3C260.3 -66.4 267.8 -33.2 275.4 0L0 0Z" fill="#1d2d41"></path><path d="M0 -183.6C16.5 -162.8 33 -142 56.3 -136C79.7 -130 110 -139 129.8 -129.8C149.7 -120.7 159.1 -93.5 166.3 -68.9C173.5 -44.2 178.6 -22.1 183.6 0L0 0Z" fill="#011526"></path><path d="M0 -91.8C8.2 -81.4 16.5 -71 28.2 -68C39.9 -65 55 -69.5 64.9 -64.9C74.8 -60.3 79.5 -46.8 83.1 -34.4C86.8 -22.1 89.3 -11.1 91.8 0L0 0Z" fill="#000000"></path></g></svg>